<?xml version="1.0" encoding="UTF-8"?>
<svg id="Calque_1" data-name="Calque 1" xmlns="http://www.w3.org/2000/svg" xmlns:xlink="http://www.w3.org/1999/xlink" viewBox="0 0 166.2 170.46">
  <defs>
    <style>
      .cls-1 {
        fill: #16934f;
      }

      .cls-1, .cls-2, .cls-3, .cls-4, .cls-5, .cls-6, .cls-7, .cls-8, .cls-9, .cls-10, .cls-11, .cls-12, .cls-13, .cls-14, .cls-15, .cls-16, .cls-17, .cls-18, .cls-19, .cls-20, .cls-21, .cls-22, .cls-23, .cls-24, .cls-25, .cls-26, .cls-27, .cls-28, .cls-29, .cls-30, .cls-31, .cls-32, .cls-33, .cls-34, .cls-35, .cls-36, .cls-37, .cls-38, .cls-39, .cls-40, .cls-41, .cls-42, .cls-43, .cls-44, .cls-45, .cls-46, .cls-47, .cls-48, .cls-49, .cls-50, .cls-51, .cls-52, .cls-53, .cls-54, .cls-55, .cls-56, .cls-57, .cls-58, .cls-59, .cls-60 {
        stroke-width: 0px;
      }

      .cls-2, .cls-3, .cls-7, .cls-50 {
        fill: #fff;
      }

      .cls-2, .cls-5, .cls-6, .cls-8, .cls-9, .cls-10, .cls-14, .cls-16, .cls-20, .cls-23, .cls-24, .cls-25, .cls-27, .cls-32, .cls-34, .cls-36, .cls-39, .cls-40, .cls-42, .cls-43, .cls-44, .cls-45, .cls-47, .cls-51, .cls-53, .cls-56, .cls-57, .cls-58 {
        fill-rule: evenodd;
      }

      .cls-3 {
        opacity: .38;
      }

      .cls-3, .cls-7, .cls-35, .cls-41 {
        isolation: isolate;
      }

      .cls-4 {
        fill: #392781;
      }

      .cls-5 {
        fill: url(#Dégradé_sans_nom_21);
      }

      .cls-6 {
        fill: url(#Dégradé_sans_nom_17);
      }

      .cls-7 {
        opacity: .17;
      }

      .cls-8 {
        fill: url(#Dégradé_sans_nom_18);
      }

      .cls-9 {
        fill: url(#Dégradé_sans_nom_24);
      }

      .cls-10 {
        fill: url(#Dégradé_sans_nom_19);
      }

      .cls-11 {
        fill: url(#Dégradé_sans_nom_3);
      }

      .cls-12 {
        fill: #4ab382;
      }

      .cls-13 {
        fill: url(#Dégradé_sans_nom_9);
      }

      .cls-14 {
        fill: url(#Dégradé_sans_nom_15);
      }

      .cls-61 {
        clip-path: url(#clippath-2);
      }

      .cls-15 {
        fill: url(#Dégradé_sans_nom_12);
      }

      .cls-16 {
        fill: url(#Dégradé_sans_nom_25);
      }

      .cls-17 {
        fill: url(#Dégradé_sans_nom_8);
      }

      .cls-62 {
        stroke: #284f71;
      }

      .cls-62, .cls-19, .cls-63, .cls-64, .cls-65 {
        fill: none;
      }

      .cls-62, .cls-65 {
        stroke-width: 1.63px;
      }

      .cls-18 {
        fill: url(#Dégradé_sans_nom_4);
      }

      .cls-20 {
        fill: #9f1915;
      }

      .cls-21 {
        fill: #ce689a;
      }

      .cls-22 {
        fill: #9279b5;
      }

      .cls-66 {
        clip-path: url(#clippath-1);
      }

      .cls-67 {
        clip-path: url(#clippath-4);
      }

      .cls-23 {
        fill: url(#Dégradé_sans_nom_13);
      }

      .cls-24, .cls-37 {
        fill: #689f63;
      }

      .cls-25 {
        fill: #343434;
      }

      .cls-26 {
        fill: #010101;
      }

      .cls-27, .cls-52 {
        fill: #e48f00;
      }

      .cls-28 {
        fill: #0e7fa5;
      }

      .cls-29 {
        fill: #1da851;
      }

      .cls-30 {
        fill: url(#Dégradé_sans_nom_11);
      }

      .cls-31 {
        fill: #f6df1c;
      }

      .cls-32 {
        fill: #0c4580;
      }

      .cls-33 {
        fill: url(#Dégradé_sans_nom_2);
      }

      .cls-34 {
        fill: url(#Dégradé_sans_nom_22);
      }

      .cls-35 {
        fill: url(#Dégradé_sans_nom_5);
        opacity: .84;
      }

      .cls-36 {
        fill: #0c74bb;
      }

      .cls-63, .cls-64 {
        stroke: #0e7fa5;
      }

      .cls-68 {
        clip-path: url(#clippath);
      }

      .cls-38 {
        fill: url(#Dégradé_sans_nom_10);
      }

      .cls-39 {
        fill: #669ad2;
      }

      .cls-69 {
        clip-path: url(#clippath-3);
      }

      .cls-40 {
        fill: #065a9d;
      }

      .cls-41 {
        fill: url(#Dégradé_sans_nom_5-2);
        opacity: .38;
      }

      .cls-42 {
        fill: url(#Dégradé_sans_nom_26);
      }

      .cls-43 {
        fill: url(#Dégradé_sans_nom_16);
      }

      .cls-64 {
        stroke-miterlimit: 4;
        stroke-width: 1px;
      }

      .cls-44 {
        fill: #e7392e;
      }

      .cls-45 {
        fill: url(#Dégradé_sans_nom_6);
      }

      .cls-46 {
        fill: #4abaec;
      }

      .cls-47 {
        fill: url(#Dégradé_sans_nom_14);
      }

      .cls-48 {
        fill: #b8c4c2;
      }

      .cls-49 {
        fill: #2c2560;
      }

      .cls-65 {
        stroke: #bb940b;
      }

      .cls-51 {
        fill: url(#Dégradé_sans_nom_20);
      }

      .cls-70 {
        clip-path: url(#clippath-5);
      }

      .cls-53 {
        fill: url(#Dégradé_sans_nom_25-2);
      }

      .cls-54, .cls-58 {
        fill: #07628b;
      }

      .cls-55 {
        fill: #364a5e;
      }

      .cls-56 {
        fill: url(#Dégradé_sans_nom_23);
      }

      .cls-57 {
        fill: #e73231;
      }

      .cls-59 {
        fill: #21323d;
      }

      .cls-60 {
        fill: #777cb4;
      }
    </style>
    <linearGradient id="Dégradé_sans_nom_2" data-name="Dégradé sans nom 2" x1="570.66" y1="-248.7" x2="567.33" y2="-368.64" gradientTransform="translate(-106.14 -23.09) scale(.35 -.35)" gradientUnits="userSpaceOnUse">
      <stop offset="0" stop-color="#ffe254"/>
      <stop offset="1" stop-color="#fec91e"/>
    </linearGradient>
    <linearGradient id="Dégradé_sans_nom_5" data-name="Dégradé sans nom 5" x1="540.34" y1="-297.3" x2="540.34" y2="-224.78" gradientTransform="translate(-96.05 -13.04) scale(.35 -.35)" gradientUnits="userSpaceOnUse">
      <stop offset="0" stop-color="#fff"/>
      <stop offset="1" stop-color="#fff" stop-opacity=".17"/>
    </linearGradient>
    <linearGradient id="Dégradé_sans_nom_4" data-name="Dégradé sans nom 4" x1="462.41" y1="-265.48" x2="586.46" y2="-265.48" gradientTransform="translate(-107.13 -24.5) scale(.35 -.35)" gradientUnits="userSpaceOnUse">
      <stop offset="0" stop-color="#3879af"/>
      <stop offset="1" stop-color="#376d9a"/>
    </linearGradient>
    <linearGradient id="Dégradé_sans_nom_5-2" data-name="Dégradé sans nom 5" x1="524.46" y1="-281.21" x2="524.46" y2="-208.7" gradientTransform="translate(-107.13 -24.5) scale(.35 -.35)" xlink:href="#Dégradé_sans_nom_5"/>
    <clipPath id="clippath">
      <ellipse class="cls-19" cx="139.81" cy="118.75" rx="19.81" ry="10.42"/>
    </clipPath>
    <radialGradient id="Dégradé_sans_nom_8" data-name="Dégradé sans nom 8" cx="-138.8" cy="623.77" fx="-138.8" fy="623.77" r=".06" gradientTransform="translate(63120.45 283194.95) scale(453.82 -453.82)" gradientUnits="userSpaceOnUse">
      <stop offset="0" stop-color="#aeb2d5"/>
      <stop offset=".3" stop-color="#aeb2d5"/>
      <stop offset=".75" stop-color="#494d8a"/>
      <stop offset="1" stop-color="#494d8a"/>
    </radialGradient>
    <clipPath id="clippath-1">
      <rect class="cls-19" x="119.18" y="107.15" width="41.27" height="23.22"/>
    </clipPath>
    <clipPath id="clippath-2">
      <rect class="cls-19" x="119.18" y="107.15" width="41.27" height="23.22"/>
    </clipPath>
    <clipPath id="clippath-3">
      <path class="cls-19" d="M81.72,10.01l-2.9,1.67c-.11.06-.18.18-.18.3v3.35c0,.13.07.24.18.3l2.9,1.67c.11.06.24.06.35,0l2.9-1.67c.11-.06.17-.18.17-.3v-3.35c0-.12-.07-.24-.18-.3l-2.9-1.67c-.05-.03-.11-.05-.18-.05s-.12.02-.18.05h0Z"/>
    </clipPath>
    <linearGradient id="Dégradé_sans_nom_10" data-name="Dégradé sans nom 10" x1="-137.85" y1="624.71" x2="-137.77" y2="624.71" gradientTransform="translate(-71592.03 -17424.11) rotate(116.11) scale(115.31 -115.31)" gradientUnits="userSpaceOnUse">
      <stop offset=".3" stop-color="#40873e"/>
      <stop offset=".5" stop-color="#55934f"/>
      <stop offset=".8" stop-color="#5cae45"/>
    </linearGradient>
    <clipPath id="clippath-4">
      <path class="cls-19" d="M78.72,15.55s.06.07.1.09l2.49,1.44.41.24c.06.04.13.05.2.05.02,0,.05,0,.07-.01l3.06-5.6s-.05-.05-.08-.06l-1.9-1.1-1-.58s-.06-.03-.09-.04l-3.26,5.57Z"/>
    </clipPath>
    <linearGradient id="Dégradé_sans_nom_9" data-name="Dégradé sans nom 9" x1="-139.15" y1="623.96" x2="-139.09" y2="623.96" gradientTransform="translate(85548.65 74232.07) rotate(-36.46) scale(177.06 -177.06)" gradientUnits="userSpaceOnUse">
      <stop offset=".57" stop-color="#40873e"/>
      <stop offset=".72" stop-color="#619858"/>
      <stop offset="1" stop-color="#77ac64"/>
    </linearGradient>
    <clipPath id="clippath-5">
      <path class="cls-19" d="M81.87,9.97s-.1.02-.14.04l-2.89,1.67,3.12,5.68s.09-.02.12-.04l2.9-1.67c.09-.05.15-.14.17-.24l-3.18-5.43s-.05,0-.07,0c0,0-.02,0-.03,0h0Z"/>
    </clipPath>
    <linearGradient id="Dégradé_sans_nom_3" data-name="Dégradé sans nom 3" x1="-138.41" y1="623.7" x2="-138.36" y2="623.7" gradientTransform="translate(18057.13 81025.29) scale(129.89 -129.89)" gradientUnits="userSpaceOnUse">
      <stop offset=".16" stop-color="#71b74a"/>
      <stop offset=".38" stop-color="#7ab561"/>
      <stop offset=".47" stop-color="#77ad64"/>
      <stop offset=".7" stop-color="#659e5a"/>
      <stop offset=".9" stop-color="#40873e"/>
    </linearGradient>
    <linearGradient id="Dégradé_sans_nom_12" data-name="Dégradé sans nom 12" x1="-345.54" y1="157.78" x2="-344.96" y2="157.5" gradientTransform="translate(8265.13 -3650.65) scale(23.9 23.91)" gradientUnits="userSpaceOnUse">
      <stop offset="0" stop-color="#e40236"/>
      <stop offset=".24" stop-color="#e6204d"/>
      <stop offset=".35" stop-color="#e61b58"/>
      <stop offset=".49" stop-color="#dc0c7e"/>
      <stop offset=".74" stop-color="#6a4494"/>
      <stop offset="1" stop-color="#504596"/>
    </linearGradient>
    <linearGradient id="Dégradé_sans_nom_11" data-name="Dégradé sans nom 11" x1="-345.47" y1="157.36" x2="-345.1" y2="157.78" gradientTransform="translate(8265.13 -3650.65) scale(23.9 23.91)" gradientUnits="userSpaceOnUse">
      <stop offset="0" stop-color="#be549b"/>
      <stop offset="1" stop-color="#c76ea9" stop-opacity="0"/>
    </linearGradient>
    <linearGradient id="Dégradé_sans_nom_26" data-name="Dégradé sans nom 26" x1="136.81" y1="342.09" x2="131.16" y2="352.07" gradientTransform="translate(0 398.32) scale(1 -1)" gradientUnits="userSpaceOnUse">
      <stop offset="0" stop-color="#ee7558"/>
      <stop offset="0" stop-color="#ee7558"/>
      <stop offset=".41" stop-color="#e52d21"/>
      <stop offset=".99" stop-color="#991915"/>
      <stop offset="1" stop-color="#991915"/>
    </linearGradient>
    <linearGradient id="Dégradé_sans_nom_25" data-name="Dégradé sans nom 25" x1="139.62" y1="350.47" x2="132.34" y2="355.36" gradientTransform="translate(0 398.32) scale(1 -1)" gradientUnits="userSpaceOnUse">
      <stop offset="0" stop-color="#861811"/>
      <stop offset="0" stop-color="#861811"/>
      <stop offset=".99" stop-color="#911913"/>
      <stop offset="1" stop-color="#911913"/>
    </linearGradient>
    <linearGradient id="Dégradé_sans_nom_25-2" data-name="Dégradé sans nom 25" x1="133.8" y1="341.79" x2="126.51" y2="346.68" xlink:href="#Dégradé_sans_nom_25"/>
    <linearGradient id="Dégradé_sans_nom_24" data-name="Dégradé sans nom 24" x1="118.51" y1="354.01" x2="119.64" y2="346.67" gradientTransform="translate(0 398.32) scale(1 -1)" gradientUnits="userSpaceOnUse">
      <stop offset="0" stop-color="#fff"/>
      <stop offset="0" stop-color="#fff"/>
      <stop offset=".23" stop-color="#e57353"/>
      <stop offset=".46" stop-color="#de3c1f"/>
      <stop offset=".99" stop-color="#a71916"/>
      <stop offset="1" stop-color="#a71916"/>
    </linearGradient>
    <linearGradient id="Dégradé_sans_nom_23" data-name="Dégradé sans nom 23" x1="126.27" y1="360.86" x2="126.69" y2="353.37" gradientTransform="translate(0 398.32) scale(1 -1)" gradientUnits="userSpaceOnUse">
      <stop offset="0" stop-color="#fff"/>
      <stop offset="0" stop-color="#fff"/>
      <stop offset=".23" stop-color="#e4724e"/>
      <stop offset=".56" stop-color="#bf1c18"/>
      <stop offset=".99" stop-color="#a91916"/>
      <stop offset="1" stop-color="#a91916"/>
    </linearGradient>
    <linearGradient id="Dégradé_sans_nom_6" data-name="Dégradé sans nom 6" x1="133.16" y1="367.78" x2="134.41" y2="362.41" gradientTransform="translate(0 398.32) scale(1 -1)" gradientUnits="userSpaceOnUse">
      <stop offset="0" stop-color="#fff"/>
      <stop offset="0" stop-color="#fff"/>
      <stop offset=".18" stop-color="#e46242"/>
      <stop offset=".4" stop-color="#c92718"/>
      <stop offset=".99" stop-color="#a91916"/>
      <stop offset="1" stop-color="#a91916"/>
    </linearGradient>
    <linearGradient id="Dégradé_sans_nom_22" data-name="Dégradé sans nom 22" x1="129.36" y1="369.67" x2="134.73" y2="372.35" gradientTransform="translate(0 398.32) scale(1 -1)" gradientUnits="userSpaceOnUse">
      <stop offset="0" stop-color="#fff"/>
      <stop offset="0" stop-color="#fff"/>
      <stop offset=".54" stop-color="#c92318"/>
      <stop offset=".99" stop-color="#c01818"/>
      <stop offset="1" stop-color="#c01818"/>
    </linearGradient>
    <linearGradient id="Dégradé_sans_nom_21" data-name="Dégradé sans nom 21" x1="113.8" y1="355.88" x2="114.25" y2="351.46" gradientTransform="translate(0 398.32) scale(1 -1)" gradientUnits="userSpaceOnUse">
      <stop offset="0" stop-color="#fff"/>
      <stop offset="0" stop-color="#fff"/>
      <stop offset=".31" stop-color="#df4123"/>
      <stop offset=".99" stop-color="#c01c18"/>
      <stop offset="1" stop-color="#c01c18"/>
    </linearGradient>
    <linearGradient id="Dégradé_sans_nom_20" data-name="Dégradé sans nom 20" x1="110.77" y1="350.26" x2="131.53" y2="371.61" gradientTransform="translate(0 398.32) scale(1 -1)" gradientUnits="userSpaceOnUse">
      <stop offset="0" stop-color="#bd1818"/>
      <stop offset="0" stop-color="#bd1818"/>
      <stop offset=".07" stop-color="#fff"/>
      <stop offset=".17" stop-color="#fff"/>
      <stop offset=".27" stop-color="#c8311d"/>
      <stop offset=".33" stop-color="#821810"/>
      <stop offset=".46" stop-color="#a31916"/>
      <stop offset=".72" stop-color="#b21917"/>
      <stop offset=".99" stop-color="#e52d15"/>
      <stop offset="1" stop-color="#e52d15"/>
    </linearGradient>
    <linearGradient id="Dégradé_sans_nom_19" data-name="Dégradé sans nom 19" x1="126.67" y1="348.11" x2="120.42" y2="349.65" gradientTransform="translate(0 398.32) scale(1 -1)" gradientUnits="userSpaceOnUse">
      <stop offset="0" stop-color="#8c1812"/>
      <stop offset="0" stop-color="#8c1812"/>
      <stop offset=".54" stop-color="#991915"/>
      <stop offset=".99" stop-color="#a91917"/>
      <stop offset="1" stop-color="#a91917"/>
    </linearGradient>
    <linearGradient id="Dégradé_sans_nom_18" data-name="Dégradé sans nom 18" x1="137.41" y1="355.61" x2="131.85" y2="360.59" gradientTransform="translate(0 398.32) scale(1 -1)" gradientUnits="userSpaceOnUse">
      <stop offset="0" stop-color="#7e1710"/>
      <stop offset="0" stop-color="#7e1710"/>
      <stop offset=".99" stop-color="#9e1915"/>
      <stop offset="1" stop-color="#9e1915"/>
    </linearGradient>
    <linearGradient id="Dégradé_sans_nom_17" data-name="Dégradé sans nom 17" x1="139.45" y1="364.75" x2="136.68" y2="367.71" gradientTransform="translate(0 398.32) scale(1 -1)" gradientUnits="userSpaceOnUse">
      <stop offset="0" stop-color="#791711"/>
      <stop offset="0" stop-color="#791711"/>
      <stop offset=".99" stop-color="#9e1a16"/>
      <stop offset="1" stop-color="#9e1a16"/>
    </linearGradient>
    <radialGradient id="Dégradé_sans_nom_13" data-name="Dégradé sans nom 13" cx="132.72" cy="360.5" fx="132.72" fy="360.5" r="6.81" gradientTransform="translate(0 398.32) scale(1 -1)" gradientUnits="userSpaceOnUse">
      <stop offset="0" stop-color="#a91916"/>
      <stop offset="0" stop-color="#a91916"/>
      <stop offset=".99" stop-color="#7e1710"/>
      <stop offset="1" stop-color="#7e1710"/>
    </radialGradient>
    <radialGradient id="Dégradé_sans_nom_14" data-name="Dégradé sans nom 14" cx="123.29" cy="351.53" fx="123.29" fy="351.53" r="9.05" gradientTransform="translate(0 398.32) scale(1 -1)" gradientUnits="userSpaceOnUse">
      <stop offset="0" stop-color="#a41916"/>
      <stop offset="0" stop-color="#a41916"/>
      <stop offset=".99" stop-color="#801810"/>
      <stop offset="1" stop-color="#801810"/>
    </radialGradient>
    <linearGradient id="Dégradé_sans_nom_15" data-name="Dégradé sans nom 15" x1="116.88" y1="344.55" x2="114.63" y2="352.2" gradientTransform="translate(0 398.32) scale(1 -1)" gradientUnits="userSpaceOnUse">
      <stop offset="0" stop-color="#8c2215"/>
      <stop offset="0" stop-color="#8c2215"/>
      <stop offset=".43" stop-color="#9f1915"/>
      <stop offset=".99" stop-color="#b31918"/>
      <stop offset="1" stop-color="#b31918"/>
    </linearGradient>
    <linearGradient id="Dégradé_sans_nom_16" data-name="Dégradé sans nom 16" x1="134.18" y1="369.91" x2="139.24" y2="367.67" gradientTransform="translate(0 398.32) scale(1 -1)" gradientUnits="userSpaceOnUse">
      <stop offset="0" stop-color="#b31917"/>
      <stop offset="0" stop-color="#b31917"/>
      <stop offset=".44" stop-color="#921913"/>
      <stop offset=".99" stop-color="#7a1c14"/>
      <stop offset="1" stop-color="#7a1c14"/>
    </linearGradient>
  </defs>
  <path class="cls-33" d="M101.88,100.72c0,4.09-3.55,6.16-7.15,7.19-5.42,1.56-9.77,1.32-14.29,0-3.78-1.1-7.15-3.35-7.15-7.19v-13.49c0-3.88,3.24-7.2,7.15-7.2l14.06-.91c4.76,0,7.87-2.97,7.87-7.85l1.3-6.52h5.36c4.16,0,6.12,3.09,7.15,7.19,1.43,5.69,1.49,9.95,0,14.39-1.45,4.31-2.99,7.19-7.15,7.19h-21.44v-.03c12.33.03,14.29-4.96,14.29,7.23h0Z"/>
  <path class="cls-50" d="M92.95,101.61c0-1.49,1.2-2.7,2.68-2.7s2.68,1.21,2.68,2.7-1.2,2.7-2.68,2.7-2.68-1.21-2.68-2.7Z"/>
  <path class="cls-35" d="M103.66,64.75v6.32c-5.1,8.97-14.8,8.99-22.94,8.99l-3.02.31c-4.24,3.65-4.38,9.5-4.37,14.63,9.35-10.44,19.33-11.22,24.31-11.2,9.93.04,14.61-2.4,19.36-7.77-.02-.1.02-.2,0-.3-.18-1.2-.5-2.48-.84-3.81-.48-1.92-1.11-3.61-2.13-4.88-.02-.02-.06-.05-.08-.07h-.07s-.04-.11-.07-.15c-.07-.05-.08-.1-.15-.15-.02-.02-.06.02-.07,0-1.08-.7-2.4-1.23-3.73-1.45-1.21-.2-2.42-.35-3.66-.46h-2.52Z"/>
  <path class="cls-65" d="M102.6,100.71c0,4.09-4.26,6.16-7.87,7.19-5.42,1.56-9.76,1.32-14.29,0-3.78-1.1-7.18-3.35-7.19-7.19l-.02-13.85c-.01-4.6,3.44-7.5,7.26-7.48l12.67.02c4.86,0,9.59-4.94,9.58-9.8v-4.84h6.3c4.16,0,6.12,3.09,7.15,7.19,1.43,5.69,1.5,9.95,0,14.39-1.45,4.31-2.99,7.7-7.15,7.7h-21.44v-.03l15.01.05v6.65Z"/>
  <path class="cls-3" d="M103.95,65.97v3.58c0,5.57-5.23,11.04-11.19,11.04h-12.34c-4.27,0-6.01,3.23-5.99,6.64l.08,13.49c.01,1.56.6,2.73,1.72,3.73,1.12,1,2.8,1.77,4.57,2.29,4.36,1.27,8.34,1.5,13.56,0,1.7-.49,3.95-1.41,5.08-2.39,1.13-.98,1.96-1.94,1.96-3.63v-5.43h-15.04v-2.51l22.71.07c1.8,0,2.68-.71,3.57-1.74.89-1.03,1.67-3.06,2.38-5.17,1.42-4.2,1.4-8.15,0-13.72-.49-1.94-1.19-3.51-2.13-4.57-.94-1.06-2.03-1.68-3.81-1.68h-5.11ZM106.39,68.4h2.67c.78,0,1.79.63,1.98.84.54.61,1.17,1.85,1.6,3.58,1.33,5.3,1.33,8.61.07,12.34-.68,2.02-1.38,3.91-1.9,4.49-.48.51-1.5.76-1.75.76l-7.16-.08h-17.98v7.39h15.04v2.99c0,1.09-1.46,1.76-1.71,1.98-.73.63-2.02,1.25-3.51,1.68-4.82,1.39-8.23,1.18-12.27,0-1.53-.45-2.85-1.1-3.6-1.74-.75-.64-.8-1.16-.93-1.92l-.08-13.49c-.02-3.03.97-4.2,3.55-4.2h12.34c7.37,0,13.63-6.51,13.63-13.48,0-.39,0-.77,0-1.16Z"/>
  <path class="cls-18" d="M71.81,55.43c0-4.09,1.1-6.31,7.15-7.37,4.11-.72,9.38-.81,14.29,0,3.88.64,7.15,3.53,7.15,7.37v13.49c0,3.96-3.17,7.2-7.15,7.2l-12.96.72c-4.85,0-9.86,4.24-9.86,8.91l-.41,5.65h-4.91c-4.16,0-6.58-3-7.59-7.19-1.37-5.63-1.31-8.99,0-14.39,1.14-4.71,4.78-7.19,8.53-7.19h5.36s13.39-.05,0-.05v-7.15h.4Z"/>
  <path class="cls-50" d="M75.38,54.54c0-1.5,1.2-2.7,2.68-2.7s2.68,1.21,2.68,2.7-1.2,2.7-2.68,2.7-2.68-1.21-2.68-2.7Z"/>
  <path class="cls-41" d="M84.88,47.47c-2.12.05-4.15.29-5.94.61-6.05,1.06-7.09,3.3-7.09,7.39l-.44,7.16h-4.97c-4.16,0-7.78,2.45-8.92,7.16-.77,3.18-1.12,5.66-.99,8.31,9.42-10.67,19.52-11.45,24.54-11.43,9.93.04,14.61-2.4,19.35-7.77v-3.43c0-3.84-3.28-6.75-7.16-7.39-2.76-.46-5.66-.68-8.38-.61Z"/>
  <path class="cls-62" d="M78.86,48.41c5.42-1.56,9.77-1.32,14.29,0,3.78,1.1,7.15,3.35,7.15,7.19v14.56c0,2.04-2.95,6.78-7.14,6.78h-13.32c-3.74,0-8.97,4.07-8.97,8.95v5.68h-6.3c-4.16,0-6.12-3.09-7.15-7.19-1.43-5.69-1.5-9.95,0-14.39,1.45-4.31,2.99-7.7,7.15-7.7h21.44v.03l-15.01-.05.03-7.29c-.04-2.99,3.61-5.32,7.83-6.56h0Z"/>
  <path class="cls-7" d="M69.64,90.35v-4.18c0-5.57,5.08-10.52,10.54-10.52h13c3.22,0,6.02-3.35,5.99-6.56l-.12-13.49c-.01-1.56-.56-2.73-1.68-3.73-1.12-1.01-2.8-1.77-4.57-2.29-4.36-1.27-8.34-1.5-13.56,0-1.69.49-3.95,1.41-5.08,2.39-1.13.98-1.96,1.94-1.96,3.63v5.43h15.04v2.51l-22.71-.08c-1.8,0-2.68.71-3.57,1.74-.89,1.03-1.67,3.06-2.38,5.17-1.42,4.2-1.4,8.15,0,13.72.49,1.94,1.19,3.51,2.13,4.57.94,1.06,2.03,1.68,3.81,1.68h5.11,0ZM67.2,87.91h-2.67c-.78,0-1.8-.63-1.98-.84-.54-.61-1.17-1.85-1.6-3.58-1.33-5.3-1.33-8.61-.08-12.34.68-2.02,1.38-3.91,1.9-4.47.48-.51,1.48-.76,1.75-.76l25.15.08v-7.39h-15.04v-2.99c0-1.09,1.46-1.76,1.71-1.98.73-.63,2.02-1.25,3.51-1.68,4.82-1.39,8.23-1.18,12.27,0,1.53.45,2.85,1.1,3.58,1.75.26.2.4.44.61.69.3.35.23.82.3,1.22v13.49c0,1.85-1.58,4.12-3.43,4.12h-13c-6.87,0-12.98,5.99-12.98,12.96v1.74h0Z"/>
  <circle class="cls-28" cx="45.58" cy="42.59" r="3.19"/>
  <g>
    <ellipse class="cls-63" cx="45.58" cy="42.59" rx="15.95" ry="7.18"/>
    <ellipse class="cls-64" cx="45.58" cy="42.59" rx="7.18" ry="15.95" transform="translate(-15.19 28.49) rotate(-30)"/>
    <ellipse class="cls-64" cx="45.58" cy="42.59" rx="15.95" ry="7.18" transform="translate(-14.09 60.77) rotate(-60)"/>
  </g>
  <g id="g3438">
    <g id="g3440">
      <g class="cls-68">
        <g id="g3442">
          <g id="g3448">
            <g id="g3450">
              <path id="path3462" class="cls-17" d="M120,118.75c0,5.76,8.87,10.42,19.81,10.42h0c10.94,0,19.81-4.67,19.81-10.42h0c0-5.76-8.87-10.42-19.81-10.42h0c-10.94,0-19.81,4.67-19.81,10.42"/>
            </g>
          </g>
        </g>
      </g>
    </g>
    <g id="g3464">
      <g class="cls-66">
        <g id="g3466">
          <g id="g3472">
            <path id="path3474" class="cls-60" d="M139.81,128.4c10.51,0,19.04-4.32,19.04-9.65s-8.52-9.65-19.04-9.65-19.04,4.32-19.04,9.65,8.52,9.65,19.04,9.65"/>
          </g>
        </g>
      </g>
    </g>
    <g id="g3476">
      <g class="cls-61">
        <g id="g3478">
          <g id="g3484">
            <path id="path3486" class="cls-26" d="M130.77,119.95c.86,0,1.51-.16,1.92-.47.4-.31.68-.85.83-1.6.14-.7.08-1.19-.15-1.46-.24-.27-.77-.41-1.57-.41h-1.38l-.77,3.94h1.12ZM126.25,124.8c-.06,0-.13-.03-.17-.08-.04-.05-.06-.11-.05-.18l2.03-10.44c.02-.1.11-.17.21-.17h4.37c1.37,0,2.4.37,3.04,1.11.65.74.85,1.77.59,3.08-.1.53-.28,1.02-.53,1.46-.25.44-.57.85-.97,1.21-.47.44-1.01.77-1.59.95-.57.19-1.31.28-2.19.28h-1.77l-.51,2.6c-.02.1-.11.17-.21.17h-2.28Z"/>
          </g>
          <g id="g3488">
            <path id="path3490" class="cls-50" d="M130.59,116.22h1.2c.96,0,1.3.21,1.41.34.19.21.22.65.1,1.27-.14.7-.39,1.19-.75,1.47-.37.28-.97.43-1.79.43h-.86l.68-3.51ZM132.65,113.72h-4.37c-.21,0-.38.15-.42.35l-2.03,10.44c-.02.13,0,.26.09.36.08.1.2.16.33.16h2.27c.21,0,.38-.15.42-.35l.47-2.43h1.59c.9,0,1.66-.1,2.26-.29.61-.2,1.18-.54,1.67-1,.41-.38.75-.8,1.01-1.27.26-.46.44-.97.55-1.53.27-1.37.05-2.46-.64-3.26-.69-.79-1.76-1.18-3.2-1.18M129.38,120.16h1.38c.92,0,1.6-.17,2.05-.52.45-.35.75-.92.91-1.73.15-.78.08-1.32-.21-1.64-.29-.32-.86-.48-1.73-.48h-1.56l-.85,4.37M132.65,114.15c1.32,0,2.28.35,2.88,1.04.6.69.79,1.66.54,2.89-.1.51-.27.98-.5,1.4-.24.42-.54.81-.93,1.16-.45.43-.96.73-1.51.91-.56.18-1.26.27-2.12.27h-1.95l-.54,2.78h-2.27l2.03-10.44h4.37"/>
          </g>
          <g id="g3492">
            <path id="path3494" class="cls-26" d="M141.5,122.03c-.06,0-.13-.03-.17-.08-.04-.05-.06-.11-.05-.18l.9-4.62c.09-.44.06-.75-.06-.89-.08-.08-.3-.22-.97-.22h-1.63l-1.13,5.81c-.02.1-.11.17-.21.17h-2.26c-.06,0-.13-.03-.17-.08-.04-.05-.06-.11-.05-.18l2.03-10.44c.02-.1.11-.17.21-.17h2.26c.06,0,.13.03.17.08.04.05.06.11.05.18l-.49,2.52h1.75c1.33,0,2.24.24,2.76.72.54.49.7,1.28.5,2.34l-.94,4.86c-.02.1-.11.17-.21.17h-2.29Z"/>
          </g>
          <g id="g3496">
            <path id="path3498" class="cls-50" d="M140.22,110.94h-2.26c-.21,0-.38.15-.42.35l-2.03,10.44c-.02.13,0,.26.09.36s.2.16.33.16h2.26c.21,0,.38-.15.42-.35l1.1-5.64h1.45c.67,0,.81.14.82.15.04.04.09.25,0,.7l-.9,4.62c-.02.13,0,.26.09.36s.2.16.33.16h2.29c.21,0,.38-.15.42-.35l.94-4.86c.22-1.14.03-2-.56-2.54-.57-.52-1.52-.78-2.91-.78h-1.49l.44-2.26c.02-.13,0-.26-.09-.36-.08-.1-.2-.16-.33-.16M140.22,111.37l-.54,2.78h2.01c1.27,0,2.14.22,2.62.66.48.44.62,1.16.43,2.15l-.94,4.86h-2.29l.9-4.62c.1-.53.06-.88-.11-1.08-.18-.19-.56-.29-1.13-.29h-1.8l-1.16,5.98h-2.26l2.03-10.44h2.26"/>
          </g>
          <g id="g3500">
            <path id="path3502" class="cls-26" d="M148.52,119.95c.86,0,1.51-.16,1.92-.47.4-.31.68-.85.83-1.6.14-.7.08-1.19-.15-1.46-.24-.27-.77-.41-1.57-.41h-1.38l-.77,3.94h1.12ZM144,124.8c-.06,0-.13-.03-.17-.08-.04-.05-.06-.11-.05-.18l2.03-10.44c.02-.1.11-.17.21-.17h4.37c1.37,0,2.4.37,3.04,1.11.65.74.85,1.77.59,3.08-.1.53-.28,1.02-.53,1.46-.25.44-.57.85-.97,1.21-.47.44-1.01.77-1.59.95-.57.19-1.31.28-2.19.28h-1.77l-.51,2.6c-.02.1-.11.17-.21.17h-2.27Z"/>
          </g>
          <g id="g3504">
            <path id="path3506" class="cls-50" d="M148.34,116.22h1.2c.96,0,1.3.21,1.41.34.19.21.22.65.1,1.27-.14.7-.39,1.19-.75,1.47-.37.28-.97.43-1.79.43h-.86l.68-3.51ZM150.41,113.72h-4.37c-.21,0-.38.15-.42.35l-2.03,10.44c-.02.13,0,.26.09.36.08.1.2.16.33.16h2.27c.21,0,.38-.15.42-.35l.47-2.43h1.59c.9,0,1.66-.1,2.26-.29.61-.2,1.18-.54,1.67-1,.41-.38.75-.8,1.01-1.27.26-.46.44-.97.55-1.53.27-1.37.05-2.47-.64-3.26-.69-.79-1.76-1.18-3.2-1.18M147.14,120.16h1.38c.92,0,1.6-.17,2.05-.52.45-.35.75-.92.91-1.73.15-.78.08-1.32-.21-1.64-.29-.32-.86-.48-1.73-.48h-1.56l-.85,4.37M150.41,114.15c1.32,0,2.28.35,2.88,1.04.6.69.79,1.66.54,2.89-.1.51-.27.98-.5,1.4-.24.42-.54.81-.93,1.16-.45.43-.96.73-1.51.91-.56.18-1.26.27-2.12.27h-1.95l-.54,2.78h-2.27l2.03-10.44h4.37"/>
          </g>
        </g>
      </g>
    </g>
  </g>
  <rect class="cls-31" x="139.81" y="68.15" width="24.09" height="24.09"/>
  <path class="cls-26" d="M155.99,86.97c.49.79,1.12,1.37,2.23,1.37.94,0,1.54-.47,1.54-1.12,0-.78-.62-1.05-1.65-1.5l-.57-.24c-1.63-.7-2.72-1.57-2.72-3.41,0-1.7,1.29-2.99,3.31-2.99,1.44,0,2.47.5,3.22,1.81l-1.76,1.13c-.39-.7-.81-.97-1.46-.97s-1.08.42-1.08.97c0,.68.42.95,1.39,1.37l.57.24c1.92.82,3.01,1.67,3.01,3.56,0,2.04-1.6,3.15-3.75,3.15s-3.46-1-4.12-2.31l1.84-1.07ZM148,87.16c.36.63.68,1.16,1.46,1.16s1.21-.29,1.21-1.42v-7.7h2.26v7.73c0,2.34-1.37,3.41-3.38,3.41-1.81,0-2.86-.94-3.4-2.07l1.84-1.12Z"/>
  <path class="cls-54" d="M29.63,12.02h.84v-3.32l1.3,2.9c.15.35.36.47.78.47s.62-.12.77-.47l1.3-2.9v3.32h.84v-3.32c0-.32-.13-.48-.4-.56-.64-.2-1.07-.03-1.26.4l-1.28,2.86-1.24-2.86c-.19-.43-.62-.6-1.26-.4-.27.08-.4.24-.4.56v3.32Z"/>
  <path class="cls-54" d="M36.16,9.31h.84v1.83c0,.1.03.33.49.34.24,0,1.82,0,1.83,0v-2.18h.84s0,2.97,0,2.99c0,.73-.91.89-1.33.9h-2.66v-.57s2.66,0,2.66,0c.54-.06.48-.33.48-.42v-.22h-1.79c-.83,0-1.36-.37-1.37-.79,0-.04.02-1.87,0-1.89Z"/>
  <path class="cls-52" d="M40.82,12.02h2.42c.28,0,.56-.06.78-.16.36-.17.54-.39.54-.69v-.61c0-.24-.2-.47-.6-.62-.21-.08-.47-.12-.72-.12h-1.02c-.34,0-.5-.1-.54-.33,0-.03,0-.05,0-.08v-.38s0-.04,0-.07c.04-.17.13-.22.43-.25.02,0,.06,0,.08,0h2.4v-.56h-2.36c-.34,0-.52.02-.68.07-.5.16-.72.4-.72.84v.49c0,.38.43.7,1.15.78.08,0,.16.01.24.01h.87s.06,0,.09,0c.27.02.38.07.46.17.05.05.06.1.06.15v.49c0,.06-.04.13-.12.2-.07.06-.19.11-.36.12-.03,0-.06,0-.09,0h-2.32v.56Z"/>
  <path class="cls-52" d="M49.81,11.04c0,.58.43.9,1.29.97.08,0,.16.01.24.01h2.19v-.56h-2.21c-.49,0-.68-.12-.68-.42v-2.9h-.84v2.91Z"/>
  <path class="cls-52" d="M45.09,11.07v-2c0-.51.36-.82,1.06-.91.07-.01.15-.02.23-.02h1.6c.08,0,.15,0,.24.02.71.1,1.06.41,1.06.91v2c0,.41-.15.63-.5.78l.83.75h-.98l-.67-.61-.68.04h-.9c-.15,0-.32-.02-.49-.07-.54-.15-.79-.43-.79-.89ZM46,11.02s0,.05.02.09c.05.23.27.36.6.36h.76l-.7-.63h.98l.61.55c.11-.06.19-.15.21-.27,0-.03,0-.05,0-.08v-1.92s0-.05,0-.08c-.05-.22-.27-.34-.59-.34h-1.27c-.37,0-.62.16-.62.42v1.9Z"/>
  <path class="cls-54" d="M54.28,7.2c-.52-.01-.91.03-1.25.18-.1.04-.25.04-.26.16.05.06.06.14.1.21.08.13.22.31.34.4.13.1.27.21.41.29.25.15.54.24.78.4.14.09.29.21.43.31.07.05.12.13.21.16h0c-.05-.07-.06-.16-.1-.22-.06-.06-.13-.13-.19-.19-.19-.25-.42-.47-.68-.65-.2-.14-.65-.34-.74-.57,0,0,0,0-.01-.01.14-.02.31-.07.44-.1.22-.06.42-.04.65-.1.1-.03.21-.06.31-.09v-.06c-.12-.12-.2-.28-.32-.38-.33-.28-.69-.56-1.06-.79-.21-.13-.46-.21-.68-.32-.07-.04-.2-.06-.25-.12-.11-.15-.18-.33-.26-.5-.18-.36-.37-.74-.53-1.12-.11-.26-.18-.51-.32-.74-.67-1.1-1.39-1.76-2.5-2.41-.24-.14-.52-.19-.82-.26-.16,0-.32-.02-.49-.03-.1-.04-.2-.16-.29-.22-.37-.23-1.32-.74-1.59-.07-.17.42.26.83.41,1.04.11.15.25.32.32.49.05.11.06.22.1.34.11.29.2.6.34.87.07.13.15.28.24.4.05.07.15.11.16.22-.09.13-.1.32-.15.49-.23.72-.14,1.63.19,2.16.1.16.34.52.68.38.29-.12.23-.49.31-.81.02-.07,0-.13.04-.18h0c.09.19.18.37.26.54.2.32.54.65.84.87.15.12.27.31.47.38h0s0-.01-.01-.01c-.04-.06-.1-.08-.15-.13-.12-.11-.24-.25-.34-.38-.27-.36-.5-.76-.72-1.18-.1-.2-.19-.42-.28-.62-.03-.08-.03-.2-.1-.24-.1.15-.24.27-.31.44-.12.28-.13.62-.18.97-.03,0-.01,0-.03.01-.2-.05-.28-.26-.35-.44-.19-.46-.23-1.19-.06-1.72.04-.14.24-.57.16-.69-.04-.13-.16-.2-.24-.29-.09-.12-.17-.27-.24-.41-.16-.36-.23-.76-.4-1.12-.08-.17-.21-.35-.32-.5-.12-.17-.26-.29-.35-.5-.03-.07-.08-.19-.03-.26.02-.05.04-.07.09-.09.09-.07.32.02.41.06.24.1.43.19.63.32.1.06.19.19.31.22h.13c.21.05.44.01.63.07.34.1.65.27.93.44.85.54,1.54,1.3,2.02,2.21.08.15.11.29.18.44.14.31.31.64.44.94.13.31.27.61.46.87.1.13.49.21.66.28.12.05.32.11.44.18.22.13.44.29.65.44.1.07.43.23.44.37Z"/>
  <path class="cls-58" d="M47.7,1.6c-.11,0-.18.01-.26.03h0s0,.01.01.01c.05.11.14.17.21.26.05.1.1.21.15.31,0,0,0,0,.01-.01.09-.06.13-.17.13-.32-.04-.04-.04-.09-.07-.13-.04-.06-.12-.1-.18-.15Z"/>
  <path class="cls-27" d="M53.93,11.44c0,.37.29.62.62.62s.62-.25.62-.62-.29-.62-.62-.62-.62.25-.62.62ZM55.03,11.44c0,.28-.21.49-.48.49s-.48-.21-.48-.49.21-.49.48-.49.48.21.48.49ZM54.72,11.79h.14l-.2-.31c.11-.01.19-.06.19-.19,0-.14-.09-.2-.27-.2h-.28v.71h.12v-.31h.11l.19.31ZM54.42,11.39v-.2h.14c.07,0,.16.01.16.1,0,.1-.08.11-.17.11h-.13Z"/>
  <path class="cls-37" d="M85.71,24.35c-.1,0-.2-.03-.29-.08l-.92-.54c-.14-.08-.07-.1-.02-.12.18-.06.22-.08.41-.19.02-.01.05,0,.07,0l.7.42s.06.01.09,0l2.75-1.59s.04-.04.04-.07v-3.17s-.02-.06-.04-.08l-2.75-1.59s-.06-.02-.08,0l-2.75,1.59s-.04.04-.04.07v3.17s.02.06.04.07l.75.43c.41.2.66-.04.66-.28v-3.13s.04-.08.08-.08h.35s.08.03.08.08v3.13c0,.54-.3.86-.81.86-.16,0-.28,0-.63-.17l-.72-.42c-.18-.1-.29-.3-.29-.5v-3.17c0-.21.11-.4.29-.5l2.75-1.59c.17-.1.41-.1.58,0l2.75,1.59c.18.1.29.29.29.5v3.17c0,.21-.11.4-.29.5l-2.75,1.59c-.09.05-.19.08-.29.08"/>
  <path class="cls-37" d="M86.56,22.16c-1.2,0-1.45-.55-1.45-1.02,0-.04.04-.08.08-.08h.36s.07.03.08.07c.05.36.21.54.94.54.58,0,.83-.13.83-.44,0-.18-.07-.31-.97-.4-.75-.07-1.22-.24-1.22-.84,0-.55.47-.88,1.25-.88.88,0,1.32.31,1.37.96,0,.02,0,.04-.02.06-.02.02-.04.03-.06.03h-.36s-.07-.03-.08-.06c-.09-.38-.29-.5-.86-.5-.63,0-.71.22-.71.39,0,.2.09.26.94.37.84.11,1.25.27,1.25.86s-.5.94-1.37.94M89.9,18.8h.09c.08,0,.09-.05.09-.08,0-.08-.06-.08-.09-.08h-.09v.17ZM89.79,18.54h.2c.07,0,.21,0,.21.16,0,.11-.07.13-.11.15.08,0,.09.06.1.13,0,.05.01.13.03.16h-.13s-.02-.18-.02-.19c0-.03-.02-.05-.06-.05h-.1v.24h-.11v-.6ZM89.55,18.84c0,.25.2.45.44.45s.45-.2.45-.45-.2-.44-.45-.44-.44.19-.44.44M90.52,18.84c0,.29-.24.53-.53.53s-.53-.24-.53-.53.25-.53.53-.53.53.23.53.53"/>
  <path class="cls-25" d="M77.2,11.93c0-.13-.07-.24-.18-.31l-2.91-1.68s-.1-.04-.16-.05h-.03c-.06,0-.11.02-.16.05l-2.91,1.68c-.11.06-.18.18-.18.31v4.52c0,.06.04.12.09.15.05.03.12.03.17,0l1.73-.99c.11-.07.18-.18.18-.31v-2.11c0-.13.07-.24.18-.3l.74-.42c.05-.03.11-.05.18-.05s.12.02.18.05l.74.42c.11.06.18.18.18.3v2.11c0,.13.07.24.18.31l1.73.99c.05.03.12.03.18,0,.05-.03.09-.09.09-.15v-4.52ZM90.95,14.29s-.02.06-.04.08l-1,.58s-.06.02-.09,0l-1-.58s-.04-.04-.04-.08v-1.16s.02-.06.04-.08l1-.58s.06-.02.09,0l1,.58s.04.04.04.08v1.16ZM91.22,5.73c-.05-.03-.12-.03-.18,0-.05.03-.09.09-.09.15v4.47s-.02.08-.06.11c-.04.02-.08.02-.12,0l-.73-.42c-.11-.06-.24-.06-.35,0l-2.92,1.68c-.11.06-.18.18-.18.3v3.37c0,.13.07.24.18.3l2.92,1.68c.11.06.24.06.35,0l2.92-1.68c.11-.06.18-.18.18-.3V7c0-.13-.07-.25-.18-.31l-1.73-.97ZM100.93,13.1c.11-.06.17-.18.17-.3v-.82c0-.13-.07-.24-.18-.3l-2.9-1.68c-.11-.06-.24-.06-.35,0l-2.91,1.68c-.11.06-.18.18-.18.3v3.36c0,.13.07.24.18.31l2.9,1.65c.11.06.24.06.35,0l1.75-.97c.06-.03.09-.09.09-.15s-.03-.12-.09-.15l-2.93-1.68c-.06-.03-.09-.09-.09-.15v-1.06c0-.06.03-.12.09-.15l.91-.53c.05-.03.12-.03.18,0l.91.53c.05.03.09.09.09.15v.83c0,.06.03.12.09.15.05.03.12.03.18,0l1.75-1.02Z"/>
  <path class="cls-24" d="M97.81,12.94s.05-.01.07,0l.56.32s.03.03.03.06v.65s-.01.05-.03.06l-.56.32s-.05.01-.07,0l-.56-.32s-.03-.03-.03-.06v-.65s.01-.05.03-.06l.56-.32Z"/>
  <g class="cls-69">
    <path class="cls-38" d="M88.08,11.4l-8.17-4-4.19,8.54,8.17,4,4.19-8.54Z"/>
  </g>
  <g class="cls-67">
    <path class="cls-13" d="M75.19,12.58l5.77,7.81,7.63-5.64-5.77-7.81-7.63,5.64Z"/>
  </g>
  <g class="cls-70">
    <path class="cls-11" d="M78.83,9.96v7.39h6.31v-7.39h-6.31Z"/>
  </g>
  <path class="cls-21" d="M43.9,86.02c-1.07,0-2,.26-2.78.64-.29-.57-.57-1.07-.62-1.44-.06-.43-.12-.7-.06-1.21.07-.52.37-1.25.36-1.31s-.07-.32-.68-.33-1.15.12-1.21.28-.18.53-.26.91c-.11.56-1.23,2.56-1.88,3.61-.21-.41-.39-.77-.43-1.05-.06-.43-.12-.7-.06-1.21.07-.52.37-1.25.36-1.31s-.07-.32-.68-.33-1.15.12-1.21.28-.13.54-.26.91c-.13.37-1.63,3.71-2.02,4.58-.2.44-.38.8-.5,1.04h0s0,.02-.02.04c-.11.21-.17.32-.17.32h0c-.08.16-.17.3-.22.3-.03,0-.1-.4.01-.95.22-1.16.76-2.97.75-3.03,0-.03.1-.35-.35-.51-.44-.16-.59.11-.63.11s-.07.1-.07.1c0,0,.49-2.03-.93-2.03-.89,0-2.11.97-2.71,1.85-.38.21-1.19.65-2.06,1.13-.33.19-.67.37-.99.54-.02-.02-.04-.05-.07-.07-1.72-1.83-4.89-3.13-4.76-5.59.05-.9.36-3.25,6.1-6.11,4.72-2.33,8.48-1.68,9.13-.25.93,2.04-2.01,5.83-6.89,6.38-1.86.21-2.84-.51-3.08-.78-.26-.28-.3-.3-.39-.24-.16.08-.06.34,0,.48.15.38.75,1.05,1.76,1.39.9.29,3.08.45,5.72-.57,2.96-1.14,5.27-4.32,4.59-6.99-.68-2.7-5.17-3.6-9.41-2.09-2.52.9-5.26,2.31-7.23,4.15-2.34,2.19-2.71,4.09-2.56,4.89.54,2.83,4.44,4.67,6,6.03-.08.04-.15.08-.21.12-.78.39-3.75,1.94-4.49,3.58-.84,1.86.13,3.2.78,3.38,2,.56,4.06-.44,5.17-2.09,1.1-1.65.97-3.79.46-4.77,0-.01-.01-.02-.02-.03.2-.12.41-.24.61-.36.4-.24.79-.45,1.13-.63-.19.52-.33,1.14-.4,2.04-.08,1.05.35,2.42.91,2.96.25.24.55.24.74.24.66,0,.96-.55,1.29-1.2.4-.8.77-1.72.77-1.72,0,0-.45,2.5.78,2.5.45,0,.9-.58,1.1-.88h0s.01-.01.03-.05c.04-.07.07-.12.07-.12h0c.18-.33.58-1.04,1.18-2.22.77-1.53,1.52-3.43,1.52-3.43,0,0,.07.47.3,1.24.13.45.42.95.64,1.44-.18.25-.29.39-.29.39h0c-.15.2-.3.4-.48.61-.61.73-1.34,1.56-1.44,1.81-.12.29-.09.49.13.66.16.12.45.14.75.12.55-.04.94-.17,1.13-.26.3-.11.64-.27.97-.51.6-.44.96-1.08.93-1.91-.02-.46-.17-.92-.35-1.35.06-.08.11-.16.16-.24.95-1.39,1.68-2.91,1.68-2.91,0,0,.07.47.3,1.24.11.39.34.82.54,1.23-.89.72-1.44,1.56-1.64,2.11-.35,1.02-.08,1.48.44,1.59.24.05.57-.06.82-.17.31-.1.68-.27,1.04-.53.6-.44,1.18-1.06,1.14-1.9-.02-.38-.12-.76-.26-1.12.76-.31,1.73-.49,2.98-.34,2.67.31,3.2,1.98,3.1,2.68s-.66,1.08-.85,1.2-.25.16-.23.24c.02.12.11.12.27.1.22-.04,1.4-.57,1.45-1.86.08-1.65-1.49-3.45-4.26-3.43ZM23.31,92.96c-.89.96-2.12,1.33-2.65,1.02-.57-.33-.35-1.76.74-2.78.66-.62,1.51-1.2,2.08-1.55.13-.08.32-.19.55-.33.04-.02.06-.03.06-.03h0s.09-.06.13-.08c.4,1.46.02,2.74-.91,3.76ZM29.76,88.58c-.31.75-.95,2.68-1.35,2.57-.34-.09-.54-1.55-.07-2.99.24-.72.75-1.59,1.05-1.92.48-.54,1.02-.72,1.14-.5.16.29-.59,2.37-.78,2.84ZM35.08,91.12c-.13.07-.25.11-.31.08-.04-.02.06-.11.06-.11,0,0,.67-.72.93-1.04.15-.19.33-.42.52-.67v.07c0,.86-.83,1.44-1.2,1.67ZM39.19,90.19c-.1-.07-.08-.29.24-.99.12-.27.42-.73.91-1.18.06.18.1.35.09.52,0,1.08-.78,1.49-1.25,1.65Z"/>
  <path class="cls-44" d="M106,134.01s.02.08.02.12v6.12c0,.16-.09.31-.22.39l-5.14,2.96v5.87c0,.16-.08.31-.22.39l-10.73,6.18s-.05.02-.08.03c-.01,0-.02,0-.03.01-.08.02-.15.02-.23,0-.01,0-.02-.01-.04-.01-.02,0-.05-.02-.07-.03l-10.73-6.18c-.14-.08-.22-.23-.22-.39v-18.37s0-.08.02-.12c0-.01.01-.02.02-.04,0-.02.02-.05.03-.07,0-.01.02-.03.03-.04.01-.02.02-.04.04-.05.01-.01.03-.02.04-.03.02-.01.03-.03.05-.04h0l5.36-3.09c.14-.08.31-.08.45,0l5.36,3.09h0s.03.03.05.04c.01.01.03.02.04.03.02.02.03.03.04.05,0,.01.02.03.03.04.01.02.02.05.03.07,0,.01.01.02.02.04.01.04.02.08.02.12v11.48l4.47-2.57v-5.87s0-.08.02-.12c0-.01.01-.03.02-.04,0-.02.02-.05.03-.07,0-.01.02-.03.03-.04.01-.02.02-.04.04-.05.01-.01.03-.02.04-.03.02-.01.03-.03.05-.04h0l5.36-3.09c.14-.08.31-.08.45,0l5.36,3.09s.03.03.05.04c.01.01.03.02.04.03.02.02.03.03.04.05.01.01.02.03.03.04.01.02.02.05.03.07,0,.01.01.02.02.04ZM105.13,139.99v-5.09l-1.88,1.08-2.59,1.49v5.09l4.47-2.57h0ZM99.76,149.2v-5.1l-2.55,1.46-7.28,4.16v5.14s9.83-5.66,9.83-5.66ZM79.2,131.86v17.34l9.83,5.66v-5.14l-5.14-2.91h0s0,0,0,0c-.02-.01-.03-.02-.05-.04-.01-.01-.03-.02-.04-.03h0s-.02-.03-.04-.05c-.01-.02-.02-.03-.03-.04h0s-.02-.04-.02-.06c0-.02-.02-.03-.02-.05h0s0-.04,0-.07c0-.02,0-.03,0-.05h0v-11.99l-2.59-1.49-1.88-1.08h0ZM84.12,128.52l-4.47,2.57,4.47,2.57,4.47-2.57-4.47-2.57h0ZM86.44,144.57l2.59-1.49v-11.22l-1.88,1.08-2.59,1.49v11.22s1.88-1.08,1.88-1.08ZM100.21,131.55l-4.47,2.57,4.47,2.57,4.47-2.57s-4.47-2.57-4.47-2.57ZM99.76,137.47l-2.59-1.49-1.88-1.08v5.09l2.59,1.49,1.88,1.08s0-5.09,0-5.09ZM89.48,148.95l6.55-3.74,3.28-1.87-4.47-2.57-5.14,2.96-4.69,2.7s4.46,2.53,4.46,2.53Z"/>
  <path class="cls-46" d="M9.05,49.77c-2.41,0-3.92,1.21-4.53,3.62.91-1.21,1.96-1.66,3.17-1.36.69.17,1.18.67,1.73,1.22.89.9,1.92,1.94,4.16,1.94,2.41,0,3.92-1.21,4.53-3.62-.91,1.21-1.96,1.66-3.17,1.36-.69-.17-1.18-.67-1.73-1.22-.89-.9-1.92-1.94-4.16-1.94ZM4.53,55.2c-2.41,0-3.92,1.21-4.53,3.62.91-1.21,1.96-1.66,3.17-1.36.69.17,1.18.67,1.73,1.22.89.9,1.92,1.94,4.16,1.94,2.41,0,3.92-1.21,4.53-3.62-.91,1.21-1.96,1.66-3.17,1.36-.69-.17-1.18-.67-1.73-1.22-.89-.9-1.92-1.94-4.16-1.94Z"/>
  <path class="cls-29" d="M124.94,148.53c-.49-2.18-1.53-2.76-1.79-3.17-.11-.18-.2-.37-.29-.56-.01.19-.04.32-.2.46-.33.29-1.74,1.44-1.85,3.92-.11,2.31,1.7,3.74,1.94,3.88.18.09.41,0,.52-.08.87-.6,2.06-2.19,1.68-4.45"/>
  <path class="cls-48" d="M122.94,151.83c-.05.57-.08.9-.19,1.23,0,0,.08.54.13,1.12h.19c.04-.41.11-.81.21-1.21-.24-.12-.32-.64-.33-1.15Z"/>
  <path class="cls-1" d="M123.27,152.97h0c-.25-.11-.32-.65-.33-1.15.06-.82.08-1.64.05-2.47-.01-.43,0-4-.11-4.52.08.18.17.35.27.51.26.41,1.29.99,1.79,3.17.39,2.25-.8,3.84-1.67,4.44Z"/>
  <path class="cls-59" d="M155.8,152.18c-.3,0-.54-.24-.54-.54,0-.3.24-.54.54-.54.29,0,.53.24.54.53,0,.29-.22.54-.51.54,0,0-.01,0-.02,0M155.8,151.16c-.27,0-.49.22-.49.48,0,.27.22.49.48.49.27,0,.49-.22.49-.48,0,0,0,0,0,0,0-.26-.21-.48-.47-.49,0,0,0,0-.01,0M155.93,151.98l-.14-.3h-.11v.3h-.08v-.68h.2c.15,0,.21.06.21.19,0,.1-.05.16-.13.18l.14.31h-.09ZM155.68,151.62h.12c.09,0,.13-.03.13-.12s-.03-.12-.14-.12h-.11v.23Z"/>
  <path class="cls-59" d="M147.82,151.69c.15.12.43.16.69.16.33,0,.66-.06.97-.35.32-.29.55-.74.55-1.46s-.26-1.25-.8-1.58c-.3-.19-.7-.27-1.15-.27-.13,0-.26,0-.34.04-.03.02-.05.06-.06.1-.01.12-.01,1.06-.01,1.61s0,1.36.01,1.45c0,.08.05.23.14.29M146.44,147.9c.12,0,.56.02.77.02.39,0,.66-.02,1.38-.02.61,0,1.12.16,1.48.48.44.38.68.91.68,1.56,0,.92-.42,1.45-.84,1.75-.42.31-.97.49-1.74.49-.41,0-1.13-.01-1.72-.02h-.01c-.03-.05.05-.27.1-.27.16-.02.2-.02.28-.06.13-.05.15-.12.17-.34.02-.42.01-.93.01-1.5,0-.41,0-1.21,0-1.46-.02-.21-.11-.27-.29-.31-.13-.03-.26-.05-.39-.06-.01-.04.09-.23.13-.27"/>
  <path class="cls-59" d="M152.47,148.25s-.06.08-.06.11c0,.25-.01.89-.01,1.33,0,.02.02.03.03.03.09,0,.31.01.5.01.26,0,.41-.03.5-.08.22-.11.32-.35.32-.61,0-.59-.41-.82-1.03-.82-.08,0-.17,0-.25.01M154.03,150.98c0-.6-.44-.94-1.25-.94-.03,0-.29,0-.35,0-.02,0-.04.02-.04.03,0,.43,0,1.12.01,1.39.01.12.1.28.2.33.11.06.36.07.53.07.48,0,.9-.27.9-.89M151.22,147.91c.06,0,.25.02.72.02.44,0,.8-.01,1.23-.01.53,0,1.26.19,1.26.98,0,.39-.28.7-.63.85-.02,0-.02.02,0,.03.51.13.96.44.96,1.04s-.37.96-.9,1.19c-.32.14-.72.19-1.13.19-.31,0-1.14-.03-1.6-.03-.05-.02.04-.24.09-.27.11,0,.21-.02.31-.05.17-.04.19-.09.21-.34.01-.21.01-.97.01-1.51,0-.74,0-1.23,0-1.48,0-.19-.08-.25-.21-.29-.1-.02-.28-.04-.41-.06-.03-.03.07-.24.11-.27"/>
  <path class="cls-59" d="M126.47,152.18s-.02-.09-.02-.14c0-.03,0-.06.02-.09.09-.01.18-.03.26-.05.12-.03.17-.1.18-.25.02-.37.02-1.06.01-1.54h0c0-.07,0-.14-.06-.19-.11-.07-.24-.13-.37-.16-.06-.02-.09-.05-.09-.08s.04-.08.11-.09c.2-.02.72-.15.93-.24.02.03.03.06.03.1,0,.02,0,.04,0,.07,0,.07-.01.15-.01.22,0,.03.03.05.06.04.01,0,.02,0,.03-.01.39-.31.74-.42.92-.42.3,0,.53.14.71.43,0,.01.02.02.04.02.02,0,.03,0,.04-.02.36-.27.72-.44.96-.44.56,0,.9.42.9,1.13,0,.2,0,.46,0,.7,0,.21,0,.41,0,.55,0,.03.04.13.11.14.08.04.2.06.35.09h0s-.01.2-.04.23c-.04,0-.09,0-.15,0-.12,0-.28-.01-.47-.01-.38,0-.57,0-.76.02-.01-.05-.02-.2,0-.23.08-.01.15-.03.23-.05.12-.04.15-.09.16-.25,0-.11.02-1.11-.01-1.34-.04-.24-.22-.53-.62-.53-.15,0-.39.06-.62.24-.01.02-.02.04-.02.06h0c.03.13.03.28.03.51,0,.13,0,.26,0,.4,0,.27,0,.53,0,.73,0,.13.08.17.15.19.04,0,.06.01.09.02.05.01.11.03.19.04.01.06.01.12,0,.17,0,.02-.01.04-.02.06-.21,0-.42-.01-.73-.01-.09,0-.25,0-.38,0-.11,0-.21,0-.27,0-.02-.04-.02-.08-.02-.12,0-.04,0-.08.02-.11l.08-.02c.07-.01.14-.02.19-.04.1-.03.14-.09.15-.22.02-.3.04-1.18,0-1.4-.07-.35-.27-.53-.59-.53-.19,0-.43.09-.62.24-.04.04-.06.09-.06.14v.36c0,.44,0,.99,0,1.22,0,.07.03.16.17.19.03,0,.08.02.14.03.03,0,.07.01.11.02.01.08,0,.16-.02.23-.06,0-.13,0-.22,0-.13,0-.29-.01-.47-.01-.22,0-.37,0-.49.01-.08,0-.15,0-.22,0"/>
  <path class="cls-59" d="M133.4,149.63c-.12,0-.23.03-.33.09-.24.15-.36.44-.36.86,0,.8.4,1.36.97,1.36.15,0,.3-.05.42-.15.18-.14.27-.44.27-.85,0-.79-.39-1.32-.97-1.32M133.51,152.24c-1.04,0-1.41-.76-1.41-1.47,0-.5.2-.89.6-1.16.28-.17.6-.27.93-.28.79,0,1.34.57,1.34,1.38,0,.55-.22.99-.64,1.26-.2.12-.55.26-.84.26"/>
  <path class="cls-59" d="M143.95,149.63c-.12,0-.23.03-.33.09-.24.15-.36.44-.36.86,0,.8.4,1.36.97,1.36.15,0,.3-.05.42-.15.18-.14.27-.44.27-.85,0-.79-.39-1.32-.97-1.32M144.06,152.24c-1.04,0-1.41-.76-1.41-1.47,0-.5.2-.89.6-1.16.28-.17.6-.27.93-.28.79,0,1.34.57,1.34,1.38,0,.55-.22.99-.64,1.26-.2.12-.55.26-.84.26"/>
  <path class="cls-59" d="M140.46,149.6c-.32,0-.53.25-.53.64s.18.85.68.85c.09,0,.24-.04.32-.12.12-.11.19-.33.19-.56,0-.51-.25-.81-.66-.81M140.42,152.3c-.09,0-.18.02-.26.06-.25.16-.37.32-.37.51,0,.18.07.32.21.44.18.15.42.22.73.22.62,0,.9-.33.9-.66,0-.23-.12-.38-.35-.47-.18-.07-.49-.1-.86-.1M140.46,153.88c-.37,0-.64-.08-.87-.25-.22-.17-.32-.43-.32-.6,0-.11.05-.22.12-.31.06-.07.21-.21.56-.45.01,0,.02-.02.02-.03,0-.01,0-.03-.02-.03-.29-.11-.37-.29-.4-.39,0,0,0,0,0-.02,0-.04-.02-.07.04-.11.04-.03.1-.07.17-.11.1-.05.19-.11.28-.18.02-.02.02-.05,0-.06,0,0,0,0,0,0-.42-.14-.64-.46-.64-.94,0-.3.14-.59.39-.77.17-.13.6-.3.87-.3h.02c.28,0,.45.07.67.15.13.05.26.07.39.06.24,0,.34-.07.43-.16.01.04.02.08.02.12,0,.1-.02.2-.08.28-.05.07-.16.12-.27.12-.01,0-.02,0-.03,0-.05,0-.11-.01-.16-.03h-.03s0,.04,0,.05c0,0,0,0,0,.01.02.09.03.17.04.26,0,.5-.2.72-.41.88-.21.16-.45.25-.71.28h0s-.03,0-.08,0c-.03,0-.07,0-.08,0h0s-.17.07-.17.18c0,.09.05.2.32.22h.17c.35.04.78.07.98.14.28.1.46.36.45.65,0,.45-.32.87-.86,1.13-.25.12-.53.18-.81.18"/>
  <path class="cls-59" d="M138.88,151.94c-.15-.02-.26-.04-.39-.1-.03-.03-.04-.06-.05-.1-.01-.21-.01-.83-.01-1.23,0-.33-.05-.61-.19-.82-.17-.23-.4-.37-.7-.37-.27,0-.63.18-.92.44,0,0-.05.05-.05-.02s.01-.2.02-.29c0-.05-.01-.09-.05-.13-.19.1-.74.23-.94.25-.15.03-.18.17-.03.22h0c.13.03.25.09.36.16.06.05.06.12.06.17,0,.46,0,1.16-.01,1.54,0,.15-.05.2-.16.23h.01c-.08.02-.17.03-.26.04-.03.03-.03.23,0,.27.07,0,.42-.02.71-.02.4,0,.61.02.71.02.04-.05.06-.23.03-.27-.1,0-.19-.02-.28-.04-.11-.03-.14-.08-.14-.2-.01-.32-.01-1-.01-1.47,0-.13.03-.19.08-.23.14-.12.37-.2.57-.2s.32.06.42.14c.11.1.18.24.2.39.03.26.02.78.02,1.23,0,.25-.02.31-.11.33-.04.02-.15.04-.28.05-.04.04-.03.23,0,.27.18,0,.39-.02.69-.02.38,0,.62.02.72.02.04-.05.06-.23.03-.27"/>
  <g>
    <path class="cls-22" d="M166.2,42.73c0-.25-.05-.47-.16-.66-.11-.19-.26-.34-.48-.46-1.75-1.01-3.51-2.02-5.26-3.03-.47-.27-.93-.26-1.4.01-.7.41-4.19,2.41-5.23,3.01-.43.25-.64.63-.64,1.12,0,2.03,0,4.06,0,6.09,0,.24.05.46.15.64.11.19.27.35.48.48,1.04.6,4.53,2.6,5.23,3.01.47.28.93.29,1.4.01,1.75-1.01,3.5-2.02,5.26-3.03.22-.13.38-.29.48-.48.1-.19.15-.4.15-.64,0,0,0-4.06,0-6.09"/>
    <path class="cls-49" d="M159.64,45.76l-6.45,3.71c.11.19.27.35.48.48,1.04.6,4.53,2.6,5.23,3.01.47.28.93.29,1.4.01,1.75-1.01,3.5-2.02,5.26-3.03.22-.13.38-.29.48-.48l-6.41-3.71"/>
    <path class="cls-4" d="M166.2,42.73c0-.25-.05-.47-.16-.66l-6.4,3.68,6.41,3.71c.1-.19.15-.4.15-.64,0,0,0-4.06,0-6.09"/>
    <path class="cls-50" d="M163.44,44.37v.69h.69v-.69h.35v.69h.69v.35h-.69v.69h.69v.35h-.69v.69h-.35v-.69h-.69v.69h-.35v-.69h-.69v-.35h.69v-.69h-.69v-.35h.69v-.69h.35ZM164.13,45.41h-.69v.69h.69v-.69Z"/>
    <path class="cls-50" d="M159.66,40.89c1.81,0,3.39.98,4.23,2.44h0s-2.13,1.21-2.13,1.21c-.42-.71-1.19-1.19-2.07-1.2h-.03c-1.34,0-2.44,1.09-2.44,2.44,0,.44.12.85.32,1.21.42.73,1.21,1.23,2.11,1.23s1.7-.5,2.12-1.24v.02s2.12,1.23,2.12,1.23c-.84,1.45-2.39,2.43-4.18,2.45h-.05c-1.81,0-3.4-.99-4.24-2.46-.41-.72-.65-1.55-.65-2.43,0-2.7,2.19-4.89,4.89-4.89Z"/>
  </g>
  <path class="cls-19" d="M3.41,108.86h20.35v20.35H3.41v-20.35Z"/>
  <path class="cls-15" d="M22.35,113.37l-.63,9.37-6.04-12.28,6.67,2.91h0ZM18.17,125.48l-4.56,2.46-4.56-2.46.93-2.12h7.27l.93,2.12h0ZM13.61,115.11l2.39,5.49h-4.78l2.39-5.49h0ZM5.49,122.73l-.63-9.36,6.67-2.92-6.04,12.28h0Z"/>
  <path class="cls-30" d="M22.35,113.37l-.63,9.37-6.04-12.28,6.67,2.91h0ZM18.17,125.48l-4.56,2.46-4.56-2.46.93-2.12h7.27l.93,2.12h0ZM13.61,115.11l2.39,5.49h-4.78l2.39-5.49h0ZM5.49,122.73l-.63-9.36,6.67-2.92-6.04,12.28h0Z"/>
  <g>
    <path class="cls-12" d="M64.44,156.08l-1.92,3.32-1.92-3.32h-6.38l8.3,14.38,8.3-14.38h-6.38Z"/>
    <path class="cls-55" d="M64.44,156.08l-1.92,3.32-1.92-3.32h-3.06l4.98,8.63,4.98-8.63h-3.06Z"/>
  </g>
  <g>
    <path class="cls-36" d="M41.66,128.12s-.91.53.65.71c1.9.22,2.87.19,4.96-.21,0,0,.55.34,1.32.64-4.69,2.01-10.61-.12-6.93-1.15h0Z"/>
    <path class="cls-36" d="M41.08,125.5s-1.03.76.54.92c2.03.21,3.63.23,6.4-.31,0,0,.38.39.98.6-5.67,1.66-11.98.13-7.92-1.22h0Z"/>
    <path class="cls-57" d="M45.91,121.05c1.16,1.33-.3,2.53-.3,2.53,0,0,2.93-1.51,1.59-3.41-1.26-1.77-2.22-2.65,3-5.67,0,0-8.2,2.05-4.28,6.56h0Z"/>
    <path class="cls-36" d="M52.11,130.06s.68.56-.75.99c-2.71.82-11.26,1.07-13.64.03-.85-.37.75-.89,1.25-1,.53-.11.83-.09.83-.09-.95-.67-6.14,1.31-2.64,1.88,9.56,1.55,17.42-.7,14.94-1.82h0Z"/>
    <path class="cls-36" d="M42.1,122.78s-4.35,1.03-1.54,1.41c1.19.16,3.55.12,5.76-.06,1.8-.15,3.61-.47,3.61-.47,0,0-.63.27-1.09.59-4.42,1.16-12.96.62-10.5-.57,2.08-1.01,3.77-.89,3.77-.89h0Z"/>
    <path class="cls-36" d="M49.9,127.14c4.49-2.33,2.42-4.58.97-4.28-.35.07-.51.14-.51.14,0,0,.13-.21.38-.3,2.87-1.01,5.07,2.97-.93,4.55,0,0,.07-.06.09-.12h0Z"/>
    <path class="cls-57" d="M47.2,109.6s2.49,2.49-2.36,6.32c-3.89,3.07-.89,4.82,0,6.82-2.27-2.05-3.93-3.85-2.82-5.53,1.64-2.46,6.18-3.66,5.18-7.61h0Z"/>
    <path class="cls-36" d="M42.54,133.47c4.31.28,10.93-.15,11.09-2.19,0,0-.3.77-3.56,1.39-3.68.69-8.22.61-10.91.17,0,0,.55.46,3.39.64h0Z"/>
    <path class="cls-57" d="M53.43,137.13h-.13v-.07h.35v.07h-.13v.37h-.09v-.37h0ZM54.14,137.15h0l-.13.35h-.06l-.13-.35h0v.35h-.09v-.44h.13l.12.31.12-.31h.13v.44h-.08v-.35h0Z"/>
    <path class="cls-57" d="M41.83,141.27c-.41.35-.84.55-1.22.55-.55,0-.85-.33-.85-.86,0-.57.32-.99,1.6-.99h.47v1.3h0ZM42.96,142.53v-3.92c0-1-.57-1.66-1.95-1.66-.8,0-1.51.2-2.08.45l.16.69c.45-.17,1.03-.32,1.61-.32.79,0,1.13.32,1.13.98v.5h-.4c-1.93,0-2.8.75-2.8,1.87,0,.97.57,1.52,1.65,1.52.69,0,1.21-.29,1.7-.71l.09.59h.88Z"/>
    <path class="cls-57" d="M46.7,142.53h-1.4l-1.68-5.48h1.22l1.05,3.37.23,1.01c.53-1.46.9-2.95,1.09-4.38h1.19c-.32,1.81-.89,3.79-1.69,5.48h0Z"/>
    <path class="cls-57" d="M52.07,141.27c-.41.35-.84.55-1.22.55-.55,0-.85-.33-.85-.86,0-.57.32-.99,1.6-.99h.47v1.3h0ZM53.19,142.53v-3.92c0-1-.57-1.66-1.95-1.66-.8,0-1.51.2-2.08.45l.17.69c.45-.17,1.04-.32,1.61-.32.79,0,1.13.32,1.13.98v.5h-.4c-1.93,0-2.8.75-2.8,1.87,0,.97.57,1.52,1.65,1.52.69,0,1.21-.29,1.7-.71l.09.59h.88Z"/>
    <path class="cls-57" d="M37.41,143.47c-.32.47-.84.84-1.4,1.05l-.55-.65c.43-.22.8-.58.97-.91.15-.3.21-.68.21-1.59v-6.26h1.19v6.17c0,1.22-.1,1.71-.42,2.19h0Z"/>
  </g>
  <polygon id="polygon3282" class="cls-42" points="134.03 44.72 118.73 53.8 138.53 52.46 140.06 32.49 134.03 44.72"/>
  <polygon id="polygon3293" class="cls-16" points="138.57 52.44 136.87 40.7 132.23 46.82 138.57 52.44"/>
  <polygon id="polygon3304" class="cls-53" points="138.59 52.44 126.12 51.46 118.8 53.77 138.59 52.44"/>
  <polygon id="polygon3319" class="cls-9" points="118.82 53.78 121.93 43.57 115.08 45.04 118.82 53.78"/>
  <polygon id="polygon3334" class="cls-56" points="132.23 46.85 129.36 35.63 121.16 43.31 132.23 46.85"/>
  <polygon id="polygon3349" class="cls-45" points="139.41 35.78 131.66 29.45 129.5 36.43 139.41 35.78"/>
  <polygon id="polygon3362" class="cls-34" points="135.78 27.19 131.22 29.71 128.35 27.16 135.78 27.19"/>
  <polygon id="polygon3375" class="cls-5" points="113.28 48.46 115.19 44.98 113.64 40.83 113.28 48.46"/>
  <path id="path3377" class="cls-2" d="M113.54,40.7l1.55,4.41,6.76-1.52,7.71-7.17,2.18-6.91-3.43-2.42-5.83,2.18c-1.84,1.71-5.4,5.09-5.53,5.15-.13.06-2.35,4.27-3.42,6.28Z"/>
  <path id="path3400" class="cls-51" d="M119,32.77c3.98-3.94,9.11-6.28,11.08-4.29,1.97,1.99-.12,6.81-4.1,10.76s-9.04,6.4-11.01,4.42c-1.97-1.98.05-6.94,4.03-10.88Z"/>
  <path id="path3413" class="cls-10" d="M118.82,53.77l3.09-10.24,10.26,3.3c-3.71,3.48-7.84,6.42-13.35,6.94Z"/>
  <path id="path3424" class="cls-8" d="M129.57,36.4l2.63,10.44c3.1-3.26,5.88-6.76,7.24-11.1,0,0-9.88.66-9.88.66Z"/>
  <path id="path3435" class="cls-6" d="M139.43,35.79c1.05-3.18,1.3-7.75-3.67-8.59l-4.08,2.25,7.75,6.34Z"/>
  <path id="path3437" class="cls-20" d="M113.28,48.42c.15,5.25,3.94,5.33,5.55,5.38l-3.73-8.71-1.82,3.33Z"/>
  <path id="path3448" class="cls-23" d="M129.59,36.42c2.38,1.46,7.18,4.4,7.28,4.46.15.09,2.07-3.23,2.5-5.11,0,0-9.78.65-9.78.65Z"/>
  <path id="path3459" class="cls-47" d="M121.9,43.54l4.13,7.97c2.44-1.32,4.36-2.94,6.11-4.67l-10.24-3.3Z"/>
  <path id="path3472" class="cls-14" d="M115.08,45.1l-.59,6.97c1.1,1.51,2.62,1.64,4.22,1.52-1.15-2.87-3.46-8.61-3.63-8.49Z"/>
  <path id="path3485" class="cls-43" d="M131.65,29.47l8.21,1.15c-.44-1.86-1.78-3.05-4.08-3.43l-4.13,2.28Z"/>
  <path id="path2" class="cls-32" d="M127.96,1.38c.24-.14.54-.14.78,0,1.19.67,4.77,2.68,5.97,3.35.24.13.39.38.39.66v6.7c0,.27-.15.52-.39.66-1.19.67-4.77,2.68-5.97,3.35-.24.14-.54.14-.78,0-1.19-.67-4.77-2.68-5.97-3.35-.24-.14-.39-.38-.39-.66v-6.7c0-.27.15-.52.39-.66,1.19-.67,4.77-2.68,5.96-3.35h0Z"/>
  <path id="path4" class="cls-39" d="M121.71,12.43c-.09-.13-.11-.25-.11-.41v-6.66c0-.27.15-.52.39-.65,1.19-.66,4.76-2.66,5.94-3.33.24-.13.57-.13.81,0,1.19.66,4.75,2.65,5.93,3.31.1.05.17.12.23.2l-13.2,7.53Z"/>
  <path id="path6" class="cls-2" d="M128.35,3.77c2.74,0,4.97,2.23,4.97,4.97s-2.23,4.97-4.97,4.97-4.97-2.23-4.97-4.97,2.23-4.97,4.97-4.97ZM128.35,6.25c1.37,0,2.48,1.11,2.48,2.48s-1.11,2.48-2.48,2.48-2.48-1.11-2.48-2.48,1.11-2.48,2.48-2.48Z"/>
  <path id="path8" class="cls-40" d="M134.91,4.9c.18.17.18.43.18.63,0,1.35-.01,5.18,0,6.53,0,.14-.05.29-.11.4l-6.77-3.73,6.71-3.83Z"/>
</svg>